<mxfile host="app.diagrams.net" modified="2023-12-12T01:45:15.551Z" agent="Mozilla/5.0 (Windows NT 10.0; Win64; x64) AppleWebKit/537.36 (KHTML, like Gecko) Chrome/120.0.0.0 Safari/537.36" version="22.1.7" etag="zPgh-gQfomkF38W2O5ke" type="github">
  <diagram name="Page-1" id="u_QkUElkrDH1U3FEkv7t">
    <mxGraphModel>
      <root>
        <mxCell id="0" />
        <mxCell id="1" parent="0" />
      </root>
    </mxGraphModel>
  </diagram>
</mxfile>
